# xmcd CD database file
# Copyright (C) 1993-1998 Ti Kan
# 
# Track frame offsets:
#     183
#     12243
#     24220
#     40723
#     56985
#     70213
#     78828
#     89463
#     102923
#     115970
#     139955
#     151780
#     164090
#     174340
#     181955
#     190098
# 
# Disc length: 2754 seconds
# 
# Revision: 1
# Processed by: cddbd v1.4b41PL1 Copyright (c) Steve Scherf et al.
# Submitted via: DiscPlay 4.0.4
# 
DISCID=cb0ac010
DTITLE=Roosevelt Sykes - Music Is My Business
DYEAR=1900
DGENRE=
TTITLE0=Music Is My Business
TTITLE1=Mistake In Life
TTITLE2=New York Boogie
TTITLE3=Dream Woman
TTITLE4=Stop Stoppin' Me
TTITLE5=Look Out For Yourself
TTITLE6=Some Right, Some Wrong
TTITLE7=Take Time Out
TTITLE8=Hot Pants
TTITLE9=A Good Woman
TTITLE10=Just A Smile
TTITLE11=Leavin' Chicago
TTITLE12=Funky Side
TTITLE13=Last Chance
TTITLE14=Who's That Pretty Woman
TTITLE15=How Long
EXTD=
EXTT0=
EXTT1=
EXTT2=
EXTT3=
EXTT4=
EXTT5=
EXTT6=
EXTT7=
EXTT8=
EXTT9=
EXTT10=
EXTT11=
EXTT12=
EXTT13=
EXTT14=
EXTT15=
PLAYORDER=
